<?xml version="1.0" encoding="utf-8"?>
<svg
  version="1.1"
  xmlns="http://www.w3.org/2000/svg"
  xmlns:xlink="http://www.w3.org/1999/xlink"
  x="0px"
  y="0px"
  viewBox="0 0 500 500"
  style="enable-background:new 0 0 500 500;"
  xml:space="preserve"
>
  <g>
    <g>
      <path
        fill="none"
        d="M142.4,249.8c0,17.3,2.9,32.9,8.8,47c5.9,14.1,13.8,26.3,23.8,36.4c10,10.1,21.7,17.9,35.2,23.4c13.5,5.5,27.8,8.2,43,8.2c15.2,0,29.5-2.7,43-8.2c13.5-5.5,25.2-13.2,35.2-23.2c10-10,17.9-22.1,23.6-36.4s8.6-30.1,8.6-47.4c0-17.1-2.9-32.6-8.8-46.6c-5.9-14-13.8-26-23.8-36c-10-10-21.7-17.7-35.2-23.2c-13.4-5.4-27.7-8.2-42.8-8.2v114.2H142.4z"
      />
      <path
        fill="#3379F2"
        d="M376,42.4l-5.2,32c-15.2-12.3-33.7-22.9-55.6-31.8c-18.7-7.6-39.5-11.8-62.2-12.9v105.9c15.1,0,29.4,2.7,42.8,8.2C309.3,149.2,321,157,331,167c10,10,17.9,22,23.8,36c5.8,14,8.8,29.5,8.8,46.6c0,17.3-2.9,33.1-8.6,47.4s-13.6,26.4-23.6,36.4c-10,10-21.7,17.7-35.2,23.2c-13.5,5.5-27.8,8.2-43,8.2c-15.2,0-29.6-2.7-43-8.2c-13.5-5.5-25.2-13.3-35.2-23.4c-10-10.1-18-22.3-23.8-36.4c-5.9-14.1-8.8-29.8-8.8-47l-123.6,0c0,0,0,0,0,0 c0,30.5,5.2,59.1,15.6,86c10.4,26.8,25.3,50.1,44.6,70c19.3,19.9,42.7,35.6,70.2,47.2c27.5,11.6,58.1,17.4,92,17.4 c27.2,0,51.7-4.4,73.4-13.2c21.7-8.8,40.3-19.3,55.8-31.6l5.6,31.6h105.2V42.4H376z"
      />
      <polygon fill="#88D2FF" points="18.8,249.8 142.4,249.8 253,249.8 253,29.6" />
    </g>
    <g><path fill="#1253C6" d="M142.4,249.8H18.8l129.9,40C144.6,277.5,142.4,264.2,142.4,249.8z" /></g>
  </g>
</svg>
